<?xml version="1.0" encoding="utf-8"?>
<!-- Svg Vector Icons : http://www.onlinewebfonts.com/icon -->
<!DOCTYPE svg PUBLIC "-//W3C//DTD SVG 1.1//EN" "http://www.w3.org/Graphics/SVG/1.1/DTD/svg11.dtd">
<svg version="1.1" xmlns="http://www.w3.org/2000/svg" xmlns:xlink="http://www.w3.org/1999/xlink" x="0px" y="0px" viewBox="0 0 1000 1000" enable-background="new 0 0 1000 1000" xml:space="preserve">
<metadata> Svg Vector Icons : http://www.onlinewebfonts.com/icon </metadata>
<g><g transform="translate(0.000000,511.000000) scale(0.100000,-0.100000)"><path d="M4516,4991.1c-582.8-76-1198.8-306-1688.1-633.5c-861.6-575-1462-1469.7-1662.7-2473.6c-66.3-335.3-79.9-551.6-79.9-1327.5v-754.3L941-338.2c-241.7-235.9-413.2-540-481.5-857.7c-39-179.3-29.2-536,19.5-721.2c177.4-682.2,748.5-1161.8,1467.8-1228c140.3-13.7,150.1-17.6,171.5-70.2c31.2-72.1,159.8-187.1,249.5-226.1c93.6-39,267.1-37,370.4,3.9c107.2,42.9,245.6,196.9,274.8,306c17.5,62.4,21.5,487.3,17.5,1653l-5.8,1569.2l-42.9,79.9c-48.7,93.6-161.8,196.9-251.5,233.9c-78,33.1-251.5,35.1-341.1,5.8c-95.5-33.1-187.1-107.2-245.6-198.8c-29.2-44.8-52.6-83.8-54.6-85.8c0-1.9-85.8-11.7-193-23.4c-105.3-11.7-257.3-44.8-337.2-70.2c-78-27.3-148.1-48.7-152-48.7c-25.3,0-7.8,1290.4,19.5,1520.4c50.7,436.6,165.7,820.6,354.8,1196.8C2399,3934.6,3634.9,4700.7,5003.3,4700.7c1877.1,0,3440.4-1456.1,3586.7-3339.1c9.7-130.6,19.5-495.1,19.5-810.9V-20.4l-42.9,13.6c-138.4,44.8-413.3,107.2-524.4,117l-128.7,11.7l-66.3,101.4c-204.7,309.9-684.2,269-838.2-74.1c-35.1-74.1-37.1-169.6-37.1-1668.6v-1588.6l50.7-101.4c81.9-165.7,241.7-261.2,436.6-261.2c177.4,2,335.3,91.6,409.4,235.9l35.1,72.1l193,23.4c167.6,19.5,339.1,60.4,460,111.1c79.9,33.1,19.5-278.7-95.5-497.1c-171.6-327.5-473.7-541.9-847.9-602.3c-70.2-11.7-454.2-21.4-888.9-21.4h-762.1l-50.7,85.8c-62.4,105.3-140.3,173.5-251.5,216.4c-72.1,27.3-152,31.2-532.1,25.3c-491.2-5.8-504.9-9.7-631.6-136.4c-202.7-200.8-175.4-557.5,52.6-731c120.8-89.7,239.8-107.2,684.2-99.4c348.9,5.8,391.8,9.7,463.9,48.7c85.8,46.8,210.5,173.5,230,235.9c13.7,39,27.3,40.9,894.7,46.8c842.1,7.8,886.9,9.8,1023.4,50.7c329.4,99.4,606.2,294.3,793.3,559.4c177.4,251.5,257.3,483.4,276.8,808.9l11.7,204.7l142.3,142.3c339.2,339.2,495.1,709.5,495.1,1173.5c0,288.5-42.9,465.9-177.4,738.8c-85.8,173.5-126.7,228.1-282.7,389.9l-183.2,187.1v721.2c0,397.7-9.7,818.7-19.5,935.7c-95.5,1019.5-600.4,1988.2-1370.3,2635.4c-577,483.4-1261.2,789.5-1999.9,890.8C5297.6,5014.5,4736.2,5020.4,4516,4991.1z M2658.3,73.1l54.6-46.8v-1539.9v-1539.9l-46.8-50.7c-62.4-66.3-155.9-68.2-230-3.9l-54.6,46.8v1543.8V26.3l54.6,46.8C2506.3,133.5,2588.1,133.5,2658.3,73.1z M7566.5,71.2l48.7-46.8v-1541.9v-1541.9l-48.7-46.8c-52.6-52.6-154-64.3-206.6-23.4c-76,58.5-76,64.3-76,1621.8V6.8l56.5,56.5C7414.5,135.5,7500.3,139.4,7566.5,71.2z M2059.9-1519.4v-1309.9l-142.3,11.7c-167.6,11.7-380.1,81.9-534.1,173.5c-245.6,144.2-477.6,436.6-573.1,717.3c-52.6,155.9-72.1,491.2-39,660.8C855.2-843,1169.1-461,1557-307c159.8,62.4,288.5,93.6,401.5,93.6l101.4,2V-1519.4z M8266.3-250.4c237.8-60.4,407.4-159.8,598.4-350.9c134.5-132.5,183.2-198.8,249.5-331.4c323.6-660.8,62.3-1432.7-596.5-1762.1c-155.9-78-341.1-128.6-477.6-128.6h-93.6v1306v1306h83.8C8077.3-211.5,8182.5-229,8266.3-250.4z M5599.7-4176.3c72.1-60.4,74.1-163.7,7.8-235.9l-44.8-48.7H5165c-395.7,0-397.6,0-444.4,48.7c-68.2,66.3-64.3,152,7.8,226.1l56.5,56.5H5167C5539.3-4129.5,5547.1-4131.4,5599.7-4176.3z"/></g></g>
</svg>